# xmcd
#
# Track frame offsets:
# 150
# 17758
# 32260
# 44321
# 59380
# 72525
# 89721
# 107341
# 130299
# 150207
# 168575
#
# Disc length: 2407 seconds
#
#
# Revision: 3
# Processed by: cddbd v1.5.2PL0 Copyright (c) Steve Scherf et al.
# Submitted via: FreeRIP 2.60 
#
DISCID=8809650b
DTITLE=Eric Church - Chief
DYEAR=2011
DGENRE=Country
TTITLE0=Creepin'
TTITLE1=Drink In My Hand
TTITLE2=Keep On
TTITLE3=Like Jesus Does
TTITLE4=Hungover and Hard Up
TTITLE5=Homeboy
TTITLE6=Country Music Jesus
TTITLE7=Jack Daniels
TTITLE8=Springsteen
TTITLE9=I'm Gettin' Stoned
TTITLE10=Over When It's Over
EXTD=
EXTT0=
EXTT1=
EXTT2=
EXTT3=
EXTT4=
EXTT5=
EXTT6=
EXTT7=
EXTT8=
EXTT9=
EXTT10=
PLAYORDER=
